<mxfile host="app.diagrams.net" modified="2023-12-26T06:23:52.608Z" agent="Mozilla/5.0 (Windows NT 10.0; Win64; x64) AppleWebKit/537.36 (KHTML, like Gecko) Chrome/121.0.0.0 Safari/537.36 Edg/121.0.0.0" version="21.6.8" etag="8yYpB6O2z206lm7Wmr0X" type="github">
  <diagram name="Page-1" id="SCCs6VtgyuEy-A_Rei4Y">
    <mxGraphModel>
      <root>
        <mxCell id="0" />
        <mxCell id="1" parent="0" />
      </root>
    </mxGraphModel>
  </diagram>
</mxfile>
